<svg width="25" height="13" viewBox="0 0 25 13" fill="none" xmlns="http://www.w3.org/2000/svg">
<path d="M24.1174 4.2058L20.2474 0.295798C20.1544 0.20207 20.0438 0.127675 19.922 0.0769067C19.8001 0.026138 19.6694 0 19.5374 0C19.4054 0 19.2747 0.026138 19.1528 0.0769067C19.0309 0.127675 18.9203 0.20207 18.8274 0.295798C18.6411 0.483161 18.5366 0.736612 18.5366 1.0008C18.5366 1.26498 18.6411 1.51844 18.8274 1.7058L22.3874 5.2958H1.99738C1.73216 5.2958 1.47781 5.40116 1.29027 5.58869C1.10273 5.77623 0.997375 6.03058 0.997375 6.2958H0.997375C0.997375 6.56101 1.10273 6.81537 1.29027 7.0029C1.47781 7.19044 1.73216 7.2958 1.99738 7.2958H22.4474L18.8274 10.9058C18.7336 10.9988 18.6593 11.1094 18.6085 11.2312C18.5577 11.3531 18.5316 11.4838 18.5316 11.6158C18.5316 11.7478 18.5577 11.8785 18.6085 12.0004C18.6593 12.1222 18.7336 12.2328 18.8274 12.3258C18.9203 12.4195 19.0309 12.4939 19.1528 12.5447C19.2747 12.5955 19.4054 12.6216 19.5374 12.6216C19.6694 12.6216 19.8001 12.5955 19.922 12.5447C20.0438 12.4939 20.1544 12.4195 20.2474 12.3258L24.1174 8.4458C24.6792 7.8833 24.9947 7.1208 24.9947 6.3258C24.9947 5.5308 24.6792 4.7683 24.1174 4.2058Z" fill="black"/>
</svg>
