<svg width="12" height="15" viewBox="0 0 12 15" fill="none" xmlns="http://www.w3.org/2000/svg">
<path d="M6.00011 3.92004C5.52803 3.92004 5.06655 4.06003 4.67403 4.3223C4.28152 4.58458 3.97558 4.95736 3.79493 5.3935C3.61427 5.82964 3.567 6.30956 3.6591 6.77257C3.7512 7.23558 3.97853 7.66088 4.31234 7.99469C4.64615 8.3285 5.07145 8.55583 5.53445 8.64793C5.99746 8.74002 6.47738 8.69276 6.91353 8.5121C7.34967 8.33144 7.72245 8.02551 7.98472 7.63299C8.24699 7.24047 8.38698 6.77899 8.38698 6.30692C8.38698 5.67388 8.13551 5.06677 7.68788 4.61914C7.24026 4.17152 6.63315 3.92004 6.00011 3.92004ZM6.00011 7.50035C5.76407 7.50035 5.53333 7.43036 5.33707 7.29922C5.14081 7.16809 4.98785 6.9817 4.89752 6.76362C4.80719 6.54555 4.78356 6.30559 4.8296 6.07409C4.87565 5.84258 4.98932 5.62993 5.15622 5.46303C5.32313 5.29612 5.53578 5.18246 5.76728 5.13641C5.99879 5.09036 6.23875 5.114 6.45682 5.20432C6.67489 5.29465 6.86128 5.44762 6.99241 5.64388C7.12355 5.84014 7.19355 6.07088 7.19355 6.30692C7.19355 6.62344 7.06781 6.92699 6.844 7.1508C6.62018 7.37462 6.31663 7.50035 6.00011 7.50035Z" fill="#9FA6B2"/>
<path d="M6 14.6612C5.49753 14.6637 5.00176 14.5459 4.55419 14.3175C4.10663 14.0891 3.7203 13.7568 3.42755 13.3484C1.15346 10.2114 0 7.85322 0 6.33875C0 4.74745 0.632141 3.22132 1.75736 2.0961C2.88258 0.970886 4.4087 0.338745 6 0.338745C7.5913 0.338745 9.11742 0.970886 10.2426 2.0961C11.3679 3.22132 12 4.74745 12 6.33875C12 7.85322 10.8465 10.2114 8.57245 13.3484C8.2797 13.7568 7.89337 14.0891 7.44581 14.3175C6.99824 14.5459 6.50247 14.6637 6 14.6612ZM6 1.64138C4.7543 1.6428 3.56003 2.13828 2.67919 3.01913C1.79834 3.89997 1.30286 5.09424 1.30144 6.33994C1.30144 7.53934 2.43103 9.75734 4.48135 12.5852C4.65541 12.8249 4.88376 13.0201 5.14772 13.1546C5.41167 13.2892 5.70373 13.3593 6 13.3593C6.29627 13.3593 6.58833 13.2892 6.85228 13.1546C7.11624 13.0201 7.34459 12.8249 7.51865 12.5852C9.56897 9.75734 10.6986 7.53934 10.6986 6.33994C10.6971 5.09424 10.2017 3.89997 9.32081 3.01913C8.43997 2.13828 7.2457 1.6428 6 1.64138Z" fill="#9FA6B2"/>
</svg>
