<svg width="14" height="13" viewBox="0 0 14 13" fill="none" xmlns="http://www.w3.org/2000/svg">
<path d="M14 6.49506C13.9951 5.96895 13.7832 5.46596 13.41 5.09506L9.12 0.795065C8.93264 0.608814 8.67919 0.504272 8.415 0.504272C8.15081 0.504272 7.89736 0.608814 7.71 0.795065C7.61627 0.888028 7.54188 0.998629 7.49111 1.12049C7.44034 1.24235 7.4142 1.37305 7.4142 1.50506C7.4142 1.63708 7.44034 1.76778 7.49111 1.88964C7.54188 2.0115 7.61627 2.1221 7.71 2.21506L11 5.49506H1C0.734784 5.49506 0.48043 5.60042 0.292893 5.78795C0.105357 5.97549 0 6.22984 0 6.49506C0 6.76027 0.105357 7.01463 0.292893 7.20216C0.48043 7.3897 0.734784 7.49506 1 7.49506H11L7.71 10.7851C7.5217 10.972 7.41538 11.2262 7.41444 11.4915C7.41351 11.7569 7.51802 12.0117 7.705 12.2001C7.89198 12.3884 8.1461 12.4947 8.41146 12.4956C8.67683 12.4965 8.9317 12.392 9.12 12.2051L13.41 7.90506C13.7856 7.53171 13.9978 7.02463 14 6.49506Z" fill="white"/>
</svg>
