<svg width="18" height="19" viewBox="0 0 18 19" fill="none" xmlns="http://www.w3.org/2000/svg">
<path d="M15.75 5H13.5C13.5 3.80653 13.0259 2.66193 12.182 1.81802C11.3381 0.974106 10.1935 0.5 9 0.5C7.80653 0.5 6.66193 0.974106 5.81802 1.81802C4.97411 2.66193 4.5 3.80653 4.5 5H2.25C1.65326 5 1.08097 5.23705 0.65901 5.65901C0.237053 6.08097 0 6.65326 0 7.25L0 14.75C0.00119089 15.7442 0.396661 16.6973 1.09966 17.4003C1.80267 18.1033 2.7558 18.4988 3.75 18.5H14.25C15.2442 18.4988 16.1973 18.1033 16.9003 17.4003C17.6033 16.6973 17.9988 15.7442 18 14.75V7.25C18 6.65326 17.7629 6.08097 17.341 5.65901C16.919 5.23705 16.3467 5 15.75 5ZM9 2C9.79565 2 10.5587 2.31607 11.1213 2.87868C11.6839 3.44129 12 4.20435 12 5H6C6 4.20435 6.31607 3.44129 6.87868 2.87868C7.44129 2.31607 8.20435 2 9 2ZM16.5 14.75C16.5 15.3467 16.2629 15.919 15.841 16.341C15.419 16.7629 14.8467 17 14.25 17H3.75C3.15326 17 2.58097 16.7629 2.15901 16.341C1.73705 15.919 1.5 15.3467 1.5 14.75V7.25C1.5 7.05109 1.57902 6.86032 1.71967 6.71967C1.86032 6.57902 2.05109 6.5 2.25 6.5H4.5V8C4.5 8.19891 4.57902 8.38968 4.71967 8.53033C4.86032 8.67098 5.05109 8.75 5.25 8.75C5.44891 8.75 5.63968 8.67098 5.78033 8.53033C5.92098 8.38968 6 8.19891 6 8V6.5H12V8C12 8.19891 12.079 8.38968 12.2197 8.53033C12.3603 8.67098 12.5511 8.75 12.75 8.75C12.9489 8.75 13.1397 8.67098 13.2803 8.53033C13.421 8.38968 13.5 8.19891 13.5 8V6.5H15.75C15.9489 6.5 16.1397 6.57902 16.2803 6.71967C16.421 6.86032 16.5 7.05109 16.5 7.25V14.75Z" fill="#252F3F"/>
</svg>
