<svg width="17" height="20" viewBox="0 0 17 20" fill="none" xmlns="http://www.w3.org/2000/svg">
<path d="M8.34003 19.0966C7.67007 19.1 7.00904 18.9429 6.41228 18.6383C5.81553 18.3338 5.30042 17.8907 4.91009 17.3462C1.87797 13.1636 0.340027 10.0193 0.340027 8C0.340027 5.87827 1.18288 3.84344 2.68317 2.34315C4.18346 0.842855 6.21829 0 8.34003 0C10.4618 0 12.4966 0.842855 13.9969 2.34315C15.4972 3.84344 16.34 5.87827 16.34 8C16.34 10.0193 14.8021 13.1636 11.77 17.3462C11.3796 17.8907 10.8645 18.3338 10.2678 18.6383C9.67102 18.9429 9.00999 19.1 8.34003 19.0966ZM8.34003 1.73685C6.67909 1.73874 5.08673 2.39938 3.91228 3.57384C2.73782 4.7483 2.07718 6.34066 2.07528 8.00159C2.07528 9.6008 3.5814 12.5581 6.31516 16.3286C6.54724 16.6483 6.85171 16.9084 7.20365 17.0878C7.55559 17.2672 7.945 17.3608 8.34003 17.3608C8.73505 17.3608 9.12447 17.2672 9.47641 17.0878C9.82835 16.9084 10.1328 16.6483 10.3649 16.3286C13.0987 12.5581 14.6048 9.6008 14.6048 8.00159C14.6029 6.34066 13.9422 4.7483 12.7678 3.57384C11.5933 2.39938 10.001 1.73874 8.34003 1.73685Z" fill="#9FA6B2"/>
</svg>
