<svg width="101" height="26" viewBox="0 0 101 26" fill="none" xmlns="http://www.w3.org/2000/svg">
<path d="M14.7973 13.6828C14.8081 12.8481 15.0298 12.0297 15.4418 11.3038C15.8538 10.5778 16.4428 9.96789 17.1539 9.53072C16.7021 8.88556 16.1062 8.35461 15.4134 7.98006C14.7205 7.60551 13.9499 7.39767 13.1627 7.37304C11.4835 7.19678 9.85552 8.37787 8.99981 8.37787C8.12754 8.37787 6.81004 7.39054 5.39131 7.41973C4.47364 7.44937 3.57929 7.71623 2.79541 8.19429C2.01154 8.67234 1.36486 9.3453 0.918393 10.1476C-1.01561 13.496 0.426982 18.4171 2.27959 21.1237C3.20649 22.449 4.28977 23.9295 5.70722 23.877C7.09428 23.8194 7.61232 22.9925 9.28662 22.9925C10.9454 22.9925 11.4314 23.877 12.8776 23.8436C14.366 23.8194 15.3038 22.5124 16.1981 21.1745C16.8641 20.2301 17.3766 19.1864 17.7166 18.0819C16.8518 17.7162 16.1139 17.104 15.5948 16.3217C15.0757 15.5394 14.7983 14.6216 14.7973 13.6828Z" fill="white"/>
<path d="M12.0657 5.59304C12.8772 4.61883 13.277 3.36665 13.1802 2.10242C11.9404 2.23264 10.7951 2.8252 9.97265 3.76203C9.57051 4.21969 9.26251 4.75213 9.06627 5.3289C8.87002 5.90567 8.78938 6.51546 8.82894 7.12342C9.44908 7.1298 10.0626 6.99539 10.6232 6.7303C11.1839 6.46521 11.6771 6.07636 12.0657 5.59304Z" fill="white"/>
<path d="M27.8718 0.795223C28.2614 0.767264 28.6524 0.826124 29.0165 0.967557C29.3806 1.10899 29.7088 1.32947 29.9774 1.61309C30.246 1.89672 30.4483 2.23642 30.5697 2.60769C30.6911 2.97896 30.7286 3.37255 30.6794 3.76006C30.6794 5.66631 29.6492 6.76206 27.8718 6.76206H25.7166V0.795223H27.8718ZM26.6433 5.91822H27.7683C28.0467 5.93486 28.3253 5.88922 28.5839 5.7846C28.8424 5.67999 29.0744 5.51904 29.2629 5.31347C29.4513 5.10791 29.5916 4.8629 29.6735 4.59628C29.7554 4.32966 29.7767 4.04815 29.7361 3.77222C29.7738 3.49739 29.7502 3.21762 29.6671 2.95295C29.584 2.68829 29.4434 2.44529 29.2553 2.24136C29.0672 2.03743 28.8364 1.87762 28.5793 1.77338C28.3222 1.66915 28.0453 1.62306 27.7683 1.63843H26.6433V5.91822Z" fill="white"/>
<path d="M31.7263 4.50862C31.698 4.2127 31.7318 3.91413 31.8257 3.63206C31.9195 3.34999 32.0713 3.09065 32.2712 2.87067C32.4712 2.65069 32.7149 2.47492 32.9867 2.35465C33.2586 2.23437 33.5526 2.17224 33.8498 2.17224C34.1471 2.17224 34.4411 2.23437 34.7129 2.35465C34.9848 2.47492 35.2285 2.65069 35.4284 2.87067C35.6284 3.09065 35.7801 3.34999 35.874 3.63206C35.9678 3.91413 36.0017 4.2127 35.9734 4.50862C36.0022 4.80484 35.9688 5.10382 35.8752 5.38635C35.7816 5.66887 35.6299 5.92869 35.4299 6.14911C35.2299 6.36952 34.986 6.54565 34.7139 6.66619C34.4418 6.78672 34.1475 6.84899 33.8498 6.84899C33.5522 6.84899 33.2579 6.78672 32.9857 6.66619C32.7136 6.54565 32.4697 6.36952 32.2697 6.14911C32.0697 5.92869 31.9181 5.66887 31.8245 5.38635C31.7309 5.10382 31.6974 4.80484 31.7263 4.50862ZM35.0593 4.50862C35.0593 3.53255 34.6208 2.96175 33.8513 2.96175C33.0788 2.96175 32.6443 3.53255 32.6443 4.50863C32.6443 5.49252 33.0789 6.05892 33.8513 6.05892C34.6208 6.05891 35.0593 5.4886 35.0593 4.50862H35.0593Z" fill="white"/>
<path d="M41.6189 6.76196H40.697L39.7664 3.44555H39.6961L38.7693 6.76196H37.8562L36.615 2.25903H37.5164L38.323 5.69503H38.3894L39.3152 2.25903H40.1677L41.0935 5.69503H41.1638L41.9666 2.25903H42.8552L41.6189 6.76196Z" fill="white"/>
<path d="M43.8992 2.25908H44.7546V2.97441H44.821C44.9337 2.71749 45.1237 2.50211 45.3646 2.35831C45.6054 2.2145 45.8852 2.14943 46.1648 2.17216C46.3839 2.15568 46.6039 2.18872 46.8085 2.26882C47.0131 2.34891 47.197 2.47402 47.3467 2.63486C47.4964 2.7957 47.608 2.98816 47.6732 3.19798C47.7384 3.4078 47.7555 3.62961 47.7234 3.84696V6.76196H46.8347V4.07012C46.8347 3.34649 46.5203 2.98662 45.863 2.98662C45.7143 2.97969 45.5658 3.00501 45.4277 3.06084C45.2897 3.11667 45.1653 3.20169 45.0632 3.31007C44.9611 3.41846 44.8836 3.54764 44.8361 3.68877C44.7885 3.82991 44.7721 3.97964 44.7878 4.12773V6.76201H43.8992L43.8992 2.25908Z" fill="white"/>
<path d="M49.1394 0.501221H50.0281V6.76196H49.1394V0.501221Z" fill="white"/>
<path d="M51.2634 4.50858C51.2352 4.21264 51.269 3.91406 51.3629 3.63198C51.4568 3.3499 51.6085 3.09055 51.8085 2.87056C52.0085 2.65057 52.2522 2.4748 52.5241 2.35453C52.7959 2.23425 53.0899 2.17212 53.3872 2.17212C53.6845 2.17212 53.9785 2.23425 54.2504 2.35453C54.5223 2.4748 54.766 2.65057 54.9659 2.87056C55.1659 3.09055 55.3177 3.3499 55.4115 3.63198C55.5054 3.91406 55.5393 4.21264 55.511 4.50858C55.5398 4.80482 55.5063 5.1038 55.4127 5.38632C55.3191 5.66885 55.1674 5.92866 54.9674 6.14907C54.7674 6.36948 54.5235 6.5456 54.2513 6.66613C53.9792 6.78666 53.6849 6.84893 53.3872 6.84893C53.0896 6.84893 52.7952 6.78666 52.5231 6.66613C52.251 6.5456 52.0071 6.36948 51.8071 6.14907C51.607 5.92866 51.4554 5.66885 51.3617 5.38632C51.2681 5.1038 51.2346 4.80482 51.2634 4.50858ZM54.5964 4.50858C54.5964 3.53251 54.158 2.96171 53.3884 2.96171C52.616 2.96171 52.1814 3.53251 52.1814 4.50859C52.1814 5.49248 52.616 6.05888 53.3884 6.05888C54.158 6.05887 54.5964 5.48856 54.5964 4.50858H54.5964Z" fill="white"/>
<path d="M56.4465 5.48852C56.4465 4.67797 57.0501 4.21069 58.1213 4.14428L59.3411 4.07397V3.6853C59.3411 3.20971 59.0266 2.94116 58.4192 2.94116C57.9231 2.94116 57.5794 3.12329 57.4807 3.44165H56.6204C56.7112 2.66821 57.4387 2.17212 58.4602 2.17212C59.5891 2.17212 60.2258 2.73412 60.2258 3.6853V6.76196H59.3704V6.12915H59.3C59.1573 6.35614 58.9569 6.54119 58.7193 6.6654C58.4817 6.78961 58.2154 6.84853 57.9475 6.83615C57.7585 6.85581 57.5674 6.83564 57.3867 6.77695C57.2059 6.71825 57.0394 6.62232 56.898 6.49535C56.7566 6.36838 56.6434 6.21319 56.5656 6.03977C56.4878 5.86636 56.4473 5.67857 56.4465 5.48852ZM59.3411 5.10375V4.72729L58.2415 4.7976C57.6213 4.8391 57.3401 5.05004 57.3401 5.44701C57.3401 5.85228 57.6916 6.08812 58.1751 6.08812C58.3167 6.10246 58.4598 6.08816 58.5958 6.04607C58.7318 6.00397 58.858 5.93496 58.9668 5.84311C59.0755 5.75127 59.1647 5.63849 59.229 5.51147C59.2933 5.38445 59.3314 5.24579 59.3411 5.10375Z" fill="white"/>
<path d="M61.3938 4.50856C61.3938 3.08571 62.1252 2.18434 63.2629 2.18434C63.5444 2.17137 63.8237 2.23878 64.0682 2.37867C64.3127 2.51857 64.5124 2.72517 64.6438 2.97434H64.7102V0.501221H65.5989V6.76196H64.7473V6.05053H64.677C64.5354 6.29802 64.3288 6.50206 64.0795 6.64054C63.8303 6.77902 63.5479 6.84667 63.2629 6.83617C62.1174 6.83622 61.3938 5.93483 61.3938 4.50856ZM62.3118 4.50856C62.3118 5.46364 62.762 6.03835 63.5149 6.03835C64.2639 6.03835 64.7268 5.45535 64.7268 4.51247C64.7268 3.57399 64.2591 2.98268 63.5149 2.98268C62.7669 2.98268 62.3118 3.56129 62.3118 4.50856H62.3118Z" fill="white"/>
<path d="M69.2756 4.50862C69.2473 4.2127 69.2811 3.91413 69.375 3.63206C69.4688 3.34999 69.6206 3.09065 69.8205 2.87067C70.0205 2.65069 70.2642 2.47492 70.536 2.35465C70.8079 2.23437 71.1019 2.17224 71.3991 2.17224C71.6964 2.17224 71.9904 2.23437 72.2623 2.35465C72.5341 2.47492 72.7778 2.65069 72.9778 2.87067C73.1777 3.09065 73.3295 3.34999 73.4233 3.63206C73.5171 3.91413 73.551 4.2127 73.5227 4.50862C73.5515 4.80484 73.5181 5.10382 73.4245 5.38635C73.3309 5.66887 73.1792 5.92869 72.9792 6.14911C72.7792 6.36952 72.5353 6.54565 72.2632 6.66619C71.9911 6.78672 71.6968 6.84899 71.3991 6.84899C71.1015 6.84899 70.8072 6.78672 70.5351 6.66619C70.2629 6.54565 70.019 6.36952 69.8191 6.14911C69.6191 5.92869 69.4674 5.66887 69.3738 5.38635C69.2802 5.10382 69.2468 4.80484 69.2756 4.50862ZM72.6086 4.50862C72.6086 3.53255 72.1701 2.96175 71.4006 2.96175C70.6281 2.96175 70.1936 3.53255 70.1936 4.50863C70.1936 5.49252 70.6282 6.05892 71.4006 6.05892C72.1701 6.05891 72.6086 5.4886 72.6086 4.50862Z" fill="white"/>
<path d="M74.7151 2.25908H75.5706V2.97441H75.637C75.7496 2.71749 75.9396 2.50211 76.1805 2.35831C76.4214 2.2145 76.7011 2.14943 76.9807 2.17216C77.1998 2.15568 77.4198 2.18872 77.6244 2.26882C77.829 2.34891 78.013 2.47402 78.1627 2.63486C78.3123 2.7957 78.4239 2.98816 78.4891 3.19798C78.5543 3.4078 78.5715 3.62961 78.5393 3.84696V6.76196H77.6506V4.07012C77.6506 3.34649 77.3362 2.98662 76.679 2.98662C76.5302 2.97969 76.3817 3.00501 76.2436 3.06084C76.1056 3.11667 75.9812 3.20169 75.8791 3.31007C75.777 3.41846 75.6995 3.54764 75.652 3.68877C75.6045 3.82991 75.588 3.97964 75.6038 4.12773V6.76201H74.7151V2.25908Z" fill="white"/>
<path d="M83.5608 1.13794V2.27954H84.5364V3.02808H83.5608V5.34351C83.5608 5.81519 83.7551 6.02173 84.1975 6.02173C84.3108 6.02137 84.4239 6.01452 84.5364 6.00122V6.74145C84.3768 6.77 84.2151 6.78519 84.053 6.78686C83.0647 6.78686 82.6711 6.4392 82.6711 5.57104V3.02804H81.9563V2.2795H82.6711V1.13794H83.5608Z" fill="white"/>
<path d="M85.7502 0.501221H86.6311V2.98267H86.7014C86.8195 2.72335 87.0148 2.50676 87.2605 2.36241C87.5062 2.21806 87.7904 2.15298 88.0744 2.17603C88.2924 2.16417 88.5103 2.20056 88.7125 2.2826C88.9148 2.36464 89.0965 2.49032 89.2446 2.65065C89.3927 2.81099 89.5037 3.00204 89.5694 3.21018C89.6352 3.41831 89.6543 3.6384 89.6252 3.85474V6.76197H88.7356V4.07397C88.7356 3.35473 88.4006 2.99047 87.7727 2.99047C87.62 2.97794 87.4664 2.99894 87.3226 3.052C87.1788 3.10505 87.0484 3.18888 86.9404 3.29761C86.8324 3.40635 86.7495 3.53737 86.6974 3.68151C86.6453 3.82565 86.6254 3.97942 86.639 4.13207V6.76195H85.7503L85.7502 0.501221Z" fill="white"/>
<path d="M94.8069 5.54609C94.6861 5.95763 94.4245 6.31362 94.0678 6.55177C93.7111 6.78992 93.2821 6.89507 92.8557 6.84882C92.559 6.85665 92.2642 6.79983 91.9917 6.6823C91.7192 6.56478 91.4755 6.38936 91.2776 6.16822C91.0797 5.94708 90.9323 5.68552 90.8456 5.4017C90.7589 5.11788 90.735 4.81859 90.7756 4.52461C90.7361 4.22973 90.7604 3.9298 90.8469 3.64512C90.9334 3.36045 91.08 3.09768 91.2769 2.87461C91.4738 2.65154 91.7163 2.47336 91.988 2.35216C92.2597 2.23095 92.5543 2.16954 92.8518 2.17207C94.1047 2.17207 94.8606 3.02807 94.8606 4.44207V4.75216H91.6809V4.80196C91.667 4.96721 91.6877 5.13354 91.7419 5.29029C91.796 5.44704 91.8823 5.59075 91.9952 5.7122C92.1081 5.83366 92.2451 5.93018 92.3975 5.99558C92.5499 6.06097 92.7143 6.0938 92.8801 6.09196C93.0927 6.11748 93.308 6.0792 93.4988 5.982C93.6896 5.88479 93.8471 5.73305 93.9514 5.54606L94.8069 5.54609ZM91.6809 4.09492H93.9553C93.9665 3.94379 93.9459 3.792 93.895 3.64928C93.844 3.50656 93.7638 3.37608 93.6594 3.26622C93.555 3.15636 93.4288 3.06956 93.2889 3.01138C93.1489 2.95321 92.9984 2.92495 92.8469 2.92842C92.6932 2.92649 92.5406 2.95535 92.3983 3.01329C92.2559 3.07124 92.1266 3.1571 92.0179 3.26581C91.9092 3.37452 91.8234 3.50389 91.7656 3.64629C91.7077 3.78868 91.6789 3.94122 91.6809 4.09492H91.6809Z" fill="white"/>
<path d="M33.5916 19.1281H28.8582L27.7214 22.4845H25.7166L30.2 10.0665H32.283L36.7664 22.4845H34.7273L33.5916 19.1281ZM29.3484 17.5792H33.1004L31.2508 12.132H31.199L29.3484 17.5792Z" fill="white"/>
<path d="M46.449 17.9582C46.449 20.7717 44.9431 22.5793 42.6707 22.5793C42.095 22.6094 41.5225 22.4768 41.0187 22.1967C40.5149 21.9165 40.1002 21.5002 39.8221 20.9953H39.7791V25.4797H37.9207V13.4309H39.7195V14.9367H39.7537C40.0446 14.4343 40.4664 14.0201 40.974 13.7382C41.4816 13.4564 42.0562 13.3174 42.6365 13.3361C44.9343 13.3362 46.449 15.1526 46.449 17.9582ZM44.5388 17.9582C44.5388 16.1252 43.5916 14.9201 42.1463 14.9201C40.7263 14.9201 39.7713 16.1506 39.7713 17.9582C39.7713 19.7824 40.7263 21.0041 42.1463 21.0041C43.5916 21.0041 44.5388 19.8078 44.5388 17.9582Z" fill="white"/>
<path d="M56.4138 17.9582C56.4138 20.7717 54.9079 22.5793 52.6355 22.5793C52.0598 22.6094 51.4873 22.4768 50.9835 22.1967C50.4797 21.9165 50.065 21.5002 49.7868 20.9953H49.7438V25.4797H47.8854V13.4309H49.6843V14.9367H49.7184C50.0094 14.4343 50.4311 14.0201 50.9388 13.7382C51.4464 13.4564 52.0209 13.3174 52.6013 13.3361C54.8991 13.3361 56.4138 15.1525 56.4138 17.9582ZM54.5036 17.9582C54.5036 16.1252 53.5564 14.9201 52.111 14.9201C50.6911 14.9201 49.736 16.1506 49.736 17.9582C49.736 19.7824 50.6911 21.0041 52.111 21.0041C53.5564 21.0041 54.5036 19.8078 54.5036 17.9582H54.5036Z" fill="white"/>
<path d="M62.9998 19.0246C63.1375 20.256 64.3338 21.0646 65.9685 21.0646C67.5349 21.0646 68.6619 20.256 68.6619 19.1456C68.6619 18.1818 67.9822 17.6046 66.3728 17.2091L64.7635 16.8214C62.4832 16.2706 61.4246 15.2042 61.4246 13.4738C61.4246 11.3312 63.2918 9.8595 65.9431 9.8595C68.5671 9.8595 70.366 11.3312 70.4265 13.4738H68.5505C68.4382 12.2345 67.4138 11.4865 65.9168 11.4865C64.4197 11.4865 63.3953 12.2433 63.3953 13.3449C63.3953 14.2228 64.0496 14.7394 65.6502 15.1349L67.0183 15.4708C69.5662 16.0733 70.6248 17.0968 70.6248 18.9132C70.6248 21.2364 68.7742 22.6915 65.8308 22.6915C63.0769 22.6915 61.2175 21.2706 61.0974 19.0245L62.9998 19.0246Z" fill="white"/>
<path d="M74.6355 11.2882V13.4308H76.3572V14.9025H74.6355V19.8937C74.6355 20.6691 74.9802 21.0304 75.7371 21.0304C75.9414 21.0268 76.1455 21.0125 76.3484 20.9874V22.4503C76.0081 22.5139 75.6623 22.5427 75.3162 22.5362C73.4832 22.5362 72.7683 21.8477 72.7683 20.0919V14.9025H71.4519V13.4308H72.7683V11.2882H74.6355Z" fill="white"/>
<path d="M77.3543 17.9581C77.3543 15.1095 79.032 13.3195 81.6483 13.3195C84.2733 13.3195 85.9432 15.1095 85.9432 17.9581C85.9432 20.8146 84.282 22.5968 81.6483 22.5968C79.0154 22.5968 77.3543 20.8146 77.3543 17.9581ZM84.0496 17.9581C84.0496 16.004 83.1541 14.8507 81.6482 14.8507C80.1424 14.8507 79.2479 16.0128 79.2479 17.9581C79.2479 19.92 80.1424 21.0646 81.6482 21.0646C83.1541 21.0646 84.0496 19.92 84.0496 17.9581H84.0496Z" fill="white"/>
<path d="M87.4753 13.4308H89.2478V14.9718H89.2908C89.4107 14.4905 89.6927 14.0652 90.0893 13.7673C90.4859 13.4694 90.9729 13.3171 91.4685 13.336C91.6827 13.3353 91.8963 13.3586 92.1053 13.4054V15.1437C91.8349 15.0611 91.5529 15.0231 91.2703 15.0314C91.0003 15.0204 90.7311 15.068 90.4813 15.1709C90.2314 15.2738 90.0068 15.4295 89.8229 15.6274C89.6389 15.8253 89.4999 16.0607 89.4155 16.3173C89.3311 16.574 89.3032 16.8459 89.3337 17.1144V22.4845H87.4753L87.4753 13.4308Z" fill="white"/>
<path d="M100.674 19.8253C100.424 21.4689 98.823 22.5968 96.7751 22.5968C94.1414 22.5968 92.5066 20.8321 92.5066 18.0011C92.5066 15.1613 94.1501 13.3195 96.697 13.3195C99.2019 13.3195 100.777 15.0402 100.777 17.7853V18.422H94.3826V18.5343C94.3531 18.8675 94.3948 19.2032 94.505 19.519C94.6151 19.8348 94.7912 20.1236 95.0216 20.3662C95.252 20.6087 95.5313 20.7995 95.841 20.9258C96.1508 21.0521 96.4838 21.1111 96.8181 21.0987C97.2573 21.1399 97.698 21.0382 98.0747 20.8087C98.4514 20.5793 98.744 20.2344 98.9089 19.8253L100.674 19.8253ZM94.3914 17.1232H98.9177C98.9344 16.8236 98.889 16.5238 98.7843 16.2426C98.6796 15.9613 98.518 15.7048 98.3094 15.489C98.1009 15.2733 97.85 15.1029 97.5726 14.9887C97.2951 14.8745 96.997 14.8189 96.697 14.8253C96.3944 14.8235 96.0944 14.8817 95.8144 14.9964C95.5343 15.1111 95.2798 15.2802 95.0654 15.4938C94.851 15.7075 94.6811 15.9614 94.5654 16.2411C94.4497 16.5207 94.3906 16.8205 94.3914 17.1232V17.1232Z" fill="white"/>
</svg>
