<svg width="120" height="42" viewBox="0 0 120 42" fill="none" xmlns="http://www.w3.org/2000/svg">
<rect x="0.200012" y="0.501221" width="119.2" height="40.9785" rx="4" fill="black"/>
<path fill-rule="evenodd" clip-rule="evenodd" d="M22.5693 10.9884H13.8286C9.7077 10.9884 8.20001 12.4961 8.20001 16.617V25.3641C8.20001 29.4849 9.7077 30.9926 13.8286 30.9926H22.5693C26.6902 30.9926 28.2 29.4849 28.2 25.3641V16.617C28.2042 12.4961 26.6965 10.9884 22.5693 10.9884Z" fill="#C8102E"/>
<path d="M12.1607 20.9905H12.6914V23.6079H12.1607V22.5445H10.9626V23.6079H10.4319V20.9905H10.9626V22.0433H12.1607V20.9905ZM15.1508 22.4876C15.1508 22.9088 14.9403 23.1404 14.557 23.1404C14.1738 23.1404 13.959 22.9088 13.959 22.4645V20.9905H13.4284V22.4855C13.4284 23.2204 13.8369 23.6416 14.5486 23.6416C15.2603 23.6416 15.6815 23.2204 15.6815 22.4624V20.9905H15.1508V22.4876ZM21.2826 22.7888L20.6888 20.9905H20.253L19.6634 22.7909L19.0843 20.9905H18.52L19.4317 23.6079H19.8718L20.4635 21.8896L21.0573 23.6079H21.5016L22.4134 20.9905H21.8617L21.2826 22.7888ZM23.3631 22.4792H24.3296V22.0054H23.3631V21.4706H24.7655V20.9905H22.8409V23.6016H24.816V23.1299H23.3631V22.4792ZM25.4477 23.6016H25.9721V20.9905H25.4477V23.6016ZM16.7301 23.0604L16.4922 23.6037H15.951L17.0944 20.9905H17.5619L18.7095 23.6037H18.162L17.9367 23.0625L16.7301 23.0604ZM16.928 22.5887H17.7261L17.326 21.6538L16.928 22.5887Z" fill="white"/>
<path d="M18.2019 17.6614C17.3192 17.6608 16.4727 17.3099 15.8485 16.6857C15.2243 16.0615 14.8734 15.215 14.8728 14.3323H15.3424C15.3424 15.0907 15.6436 15.818 16.1799 16.3543C16.7162 16.8906 17.4435 17.1918 18.2019 17.1918C18.9603 17.1918 19.6877 16.8906 20.2239 16.3543C20.7602 15.818 21.0615 15.0907 21.0615 14.3323H21.531C21.5305 15.215 21.1796 16.0615 20.5554 16.6857C19.9311 17.3099 19.0847 17.6608 18.2019 17.6614Z" fill="white"/>
<path d="M43.0388 27.3251H38.9734L37.9866 30.0384H36.2L40.1752 19.9016H41.8624L45.9278 30.0384H44.058L43.0388 27.3251ZM39.4911 25.9384H42.5188L41.4348 23.0356C41.2869 22.6357 41.139 22.192 40.9957 21.7066C40.864 22.1365 40.7207 22.5733 40.5681 23.0217L39.4911 25.9384Z" fill="white"/>
<path d="M46.6466 24.3368C46.6466 23.7775 46.6281 23.1612 46.5911 22.4879H48.209C48.2697 22.8048 48.3114 23.1251 48.3338 23.447C48.6168 23.1078 48.9699 22.8338 49.3689 22.6439C49.7678 22.454 50.2031 22.3527 50.6449 22.3469C51.163 22.3387 51.6716 22.4852 52.106 22.7676C52.5403 23.05 52.8806 23.4556 53.0832 23.9324C53.3675 24.5878 53.5025 25.2983 53.4784 26.0124C53.496 26.791 53.338 27.5636 53.0162 28.2727C52.747 28.8613 52.3074 29.3556 51.7543 29.6918C51.1852 30.0207 50.5371 30.1877 49.8799 30.1748C49.3628 30.1745 48.8495 30.087 48.3615 29.916V33.043L46.6327 33.1909L46.6466 24.3368ZM51.1904 28.1895C51.5417 27.7273 51.7196 27.034 51.7196 26.1095C51.7196 25.2667 51.5733 24.6504 51.2805 24.2605C51.1482 24.0794 50.974 23.933 50.7727 23.834C50.5714 23.7349 50.3492 23.6862 50.1249 23.692C49.8019 23.6877 49.4834 23.7673 49.2004 23.9231C48.8999 24.0934 48.6265 24.3076 48.3892 24.5587V28.6032C48.5808 28.6936 48.7825 28.7603 48.9901 28.802C49.2134 28.8503 49.4412 28.8751 49.6696 28.876C49.9598 28.8933 50.2498 28.8399 50.5147 28.7204C50.7796 28.6008 51.0115 28.4186 51.1904 28.1895Z" fill="white"/>
<path d="M54.5299 24.3368C54.5299 23.7775 54.5114 23.1612 54.4744 22.4879H56.0922C56.1549 22.8046 56.1974 23.1249 56.2194 23.447C56.8927 22.7136 57.6631 22.3469 58.5305 22.3469C59.0486 22.3387 59.5572 22.4852 59.9916 22.7676C60.4259 23.05 60.7662 23.4556 60.9688 23.9324C61.2531 24.5878 61.3881 25.2983 61.364 26.0124C61.3853 26.7901 61.2312 27.5626 60.9134 28.2727C60.6435 28.8617 60.2031 29.356 59.6491 29.6918C59.0802 30.021 58.432 30.188 57.7748 30.1748C57.2577 30.1745 56.7443 30.087 56.2563 29.916V33.043L54.5276 33.1909L54.5299 24.3368ZM59.0806 28.1895C59.4319 27.7165 59.6075 27.0232 59.6075 26.1095C59.6075 25.2667 59.4619 24.6504 59.1707 24.2605C59.0385 24.0794 58.8642 23.933 58.6629 23.834C58.4617 23.7349 58.2394 23.6862 58.0151 23.692C57.6922 23.6881 57.3738 23.7677 57.0907 23.9231C56.7901 24.0934 56.5167 24.3076 56.2795 24.5587V28.6032C56.4713 28.6929 56.6729 28.7596 56.8804 28.802C57.1036 28.8503 57.3314 28.8751 57.5598 28.876C57.8499 28.8929 58.1398 28.8394 58.4047 28.7198C58.6695 28.6003 58.9014 28.4183 59.0806 28.1895Z" fill="white"/>
<path d="M64.5421 29.5602C63.8035 29.1551 63.2037 28.5375 62.8203 27.7875C62.4012 26.94 62.195 26.0031 62.2194 25.058C62.1894 24.0468 62.4287 23.0458 62.9127 22.1575C63.3498 21.3866 64.0063 20.7631 64.7986 20.3663C65.6314 19.9594 66.5483 19.7544 67.475 19.7677C68.037 19.7653 68.5972 19.8304 69.1437 19.9618C69.6547 20.0822 70.1508 20.2589 70.6228 20.4888L70.1745 21.8177C69.3569 21.4053 68.4575 21.1811 67.542 21.1613C66.8958 21.1506 66.2582 21.31 65.6931 21.6236C65.1569 21.9314 64.726 22.3937 64.4566 22.9502C64.1468 23.6102 63.9964 24.3338 64.0175 25.0626C64.006 25.7193 64.1205 26.372 64.3549 26.9855C64.5677 27.5285 64.942 27.9932 65.4273 28.3168C65.9801 28.6627 66.6246 28.8335 67.2762 28.8067C67.6139 28.8059 67.9509 28.7773 68.2839 28.7212C68.6061 28.67 68.9227 28.588 69.2292 28.4762V26.4147H66.8856V25.0719H70.9094V29.3452C70.3256 29.6173 69.7143 29.8257 69.0859 29.9669C68.4628 30.1105 67.8255 30.1834 67.1861 30.1842C66.2658 30.2063 65.3554 29.9914 64.5421 29.5602Z" fill="white"/>
<path d="M77.05 30.0385C76.9846 29.7085 76.9444 29.3739 76.9298 29.0378C76.6411 29.3737 76.2883 29.6487 75.8921 29.8467C75.4448 30.0733 74.949 30.1875 74.4476 30.1795C74.0373 30.1847 73.6312 30.097 73.2597 29.9229C72.9062 29.7572 72.6107 29.489 72.4115 29.1533C72.1907 28.7728 72.081 28.3381 72.0948 27.8984C72.0819 27.5648 72.1468 27.2329 72.2844 26.9288C72.422 26.6247 72.6285 26.3569 72.8876 26.1465C73.4145 25.7089 74.2935 25.4909 75.5246 25.4924C75.9832 25.4922 76.4412 25.5246 76.8951 25.5895V25.4416C76.8951 24.7759 76.7534 24.306 76.4699 24.0317C76.131 23.7401 75.6911 23.5932 75.245 23.6227C74.8454 23.6275 74.4479 23.6819 74.0616 23.7845C73.679 23.8767 73.306 24.0052 72.9476 24.1681L72.6749 22.9108C73.0669 22.7436 73.474 22.6143 73.8906 22.5249C74.4146 22.4064 74.9504 22.3474 75.4876 22.3492C76.0569 22.3337 76.6233 22.4351 77.1517 22.6473C77.6165 22.8528 77.9949 23.2141 78.2218 23.6689C78.5054 24.2778 78.6378 24.9462 78.6077 25.6172V28.6218C78.6077 28.9299 78.6262 29.4029 78.6632 30.0408L77.05 30.0385ZM76.0146 28.6518C76.3477 28.497 76.647 28.2778 76.8951 28.007V26.6203C76.5115 26.5749 76.1258 26.5495 75.7396 26.544C75.0262 26.544 74.5324 26.6596 74.2581 26.8907C74.1243 27.0037 74.018 27.1457 73.9471 27.3058C73.8762 27.466 73.8427 27.6401 73.849 27.8151C73.8365 27.9664 73.8566 28.1185 73.9081 28.2613C73.9595 28.404 74.0411 28.5341 74.1472 28.6426C74.3724 28.8325 74.6618 28.9293 74.9561 28.913C75.3242 28.9074 75.6861 28.8181 76.0146 28.6518Z" fill="white"/>
<path d="M79.9436 28.2266V19.3054L81.6631 19.1667V27.9192C81.6387 28.1622 81.6965 28.4063 81.8272 28.6125C81.8933 28.6836 81.9746 28.7386 82.0652 28.7734C82.1557 28.8083 82.2529 28.822 82.3495 28.8136C82.5063 28.8068 82.6616 28.7804 82.8118 28.735L83.0152 29.9738C82.8216 30.0469 82.621 30.0996 82.4166 30.131C82.1959 30.1693 81.9725 30.1893 81.7486 30.1911C80.5453 30.1834 79.9436 29.5285 79.9436 28.2266Z" fill="white"/>
<path d="M84.2448 28.2266V19.3054L85.9666 19.1667V27.9192C85.9421 28.1622 85.9999 28.4063 86.1307 28.6125C86.1967 28.6836 86.2781 28.7386 86.3686 28.7734C86.4591 28.8083 86.5564 28.822 86.653 28.8136C86.8097 28.8068 86.965 28.7804 87.1152 28.735L87.3163 29.9738C87.1236 30.0469 86.9237 30.0996 86.72 30.131C86.4986 30.1694 86.2745 30.1895 86.0498 30.1911C84.848 30.1834 84.2463 29.5285 84.2448 28.2266Z" fill="white"/>
<path d="M94.3887 26.484H89.4497C89.5283 28.0664 90.2817 28.8575 91.71 28.8575C92.0766 28.8557 92.4418 28.8122 92.7986 28.7281C93.163 28.6433 93.5195 28.5273 93.864 28.3814L94.2431 29.5648C93.3532 29.9841 92.3793 30.1944 91.3957 30.1795C90.6911 30.1999 89.9928 30.0408 89.3665 29.7173C88.8238 29.4241 88.3884 28.966 88.1231 28.4092C87.8297 27.7641 87.6874 27.0606 87.707 26.3522C87.6879 25.6099 87.8389 24.8731 88.1485 24.1982C88.4125 23.6255 88.8393 23.1432 89.3757 22.8115C89.9255 22.4877 90.5544 22.3229 91.1923 22.3354C91.8255 22.313 92.4499 22.4883 92.9789 22.8369C93.4559 23.168 93.8255 23.6316 94.042 24.1705C94.28 24.7574 94.3979 25.3861 94.3887 26.0194V26.484ZM92.7038 25.3862C92.7071 24.8955 92.5442 24.4181 92.2416 24.0318C92.1059 23.8799 91.9385 23.7597 91.7512 23.6798C91.5638 23.5999 91.3612 23.5623 91.1576 23.5696C90.9528 23.5653 90.7494 23.6043 90.5606 23.684C90.3719 23.7636 90.202 23.8821 90.0621 24.0318C89.7363 24.4115 89.5367 24.8832 89.4913 25.3815L92.7038 25.3862Z" fill="white"/>
<path d="M95.6967 24.3854C95.6967 23.9717 95.6759 23.3384 95.6389 22.4902H97.2567C97.2845 22.7005 97.3099 22.9524 97.3376 23.2413C97.3654 23.5302 97.3792 23.7706 97.3885 23.9532C97.5625 23.6586 97.7604 23.3788 97.9801 23.1165C98.1709 22.8924 98.4013 22.7052 98.6596 22.5642C98.9313 22.4175 99.2362 22.3435 99.5448 22.3492C99.7789 22.3435 100.012 22.3723 100.238 22.4347L100.021 23.9324C99.7503 23.854 99.4661 23.8341 99.1871 23.874C98.9082 23.9138 98.641 24.0125 98.4031 24.1635C98.0205 24.4478 97.6872 24.7929 97.4162 25.185V30.0385H95.6967V24.3854Z" fill="white"/>
<path d="M101.199 33.1286C100.989 33.0945 100.781 33.0443 100.578 32.9784L100.892 31.7188C101.037 31.7579 101.185 31.7895 101.333 31.8135C101.5 31.8431 101.668 31.8585 101.837 31.8598C102.608 31.8598 103.181 31.3675 103.557 30.3829L103.67 30.1033L100.885 22.4902H102.734L104.148 26.7451C104.33 27.2924 104.476 27.8505 104.588 28.4161C104.719 27.8707 104.872 27.3252 105.05 26.7798L106.46 22.4902H108.2L105.427 30.1379C105.217 30.7539 104.932 31.3416 104.578 31.8875C104.308 32.2998 103.94 32.6382 103.506 32.872C103.041 33.0991 102.528 33.2101 102.011 33.1956C101.739 33.1967 101.467 33.1742 101.199 33.1286Z" fill="white"/>
<path d="M36.2 8.87866H39.7467L39.648 9.73733H37.2347V11.3987H39.5093V12.1987H37.2347V14.0387H39.776L39.688 14.9107H36.2V8.87866Z" fill="white"/>
<path d="M42.1971 11.8333L40.3305 8.87866H41.5144L42.7838 11.0493L44.1171 8.87866H45.2665L43.3998 11.796L45.4185 14.9107H44.2185L42.7811 12.5373L41.3171 14.9107H40.1678L42.1971 11.8333Z" fill="white"/>
<path d="M46.1839 8.87866H47.8106C48.5732 8.87866 49.1581 9.03422 49.5652 9.34533C49.7677 9.50466 49.9288 9.71055 50.0346 9.94547C50.1405 10.1804 50.188 10.4374 50.1732 10.6947C50.1845 11.0621 50.0921 11.4253 49.9066 11.7427C49.7255 12.041 49.4614 12.2801 49.1466 12.4307C48.7968 12.596 48.4134 12.6782 48.0266 12.6707C47.758 12.6669 47.4903 12.6392 47.2266 12.588V14.9107H46.1839V8.87866ZM48.7972 11.572C48.911 11.4627 48.9997 11.3301 49.0573 11.1832C49.1148 11.0364 49.1398 10.8788 49.1306 10.7213C49.1441 10.5704 49.1203 10.4185 49.0613 10.279C49.0022 10.1395 48.9097 10.0166 48.7919 9.92133C48.4918 9.73855 48.1425 9.65287 47.7919 9.676H47.2266V11.8093C47.4247 11.845 47.6253 11.8655 47.8266 11.8707C48.1762 11.8969 48.5228 11.7902 48.7972 11.572Z" fill="white"/>
<path d="M51.2025 8.87866H52.2425V14.02H54.7385L54.6505 14.9107H51.2025V8.87866Z" fill="white"/>
<path d="M56.3227 14.6147C55.8856 14.3688 55.5325 13.9972 55.3093 13.5481C55.0668 13.0503 54.947 12.5016 54.96 11.9481C54.9472 11.3696 55.0754 10.7967 55.3333 10.2787C55.5698 9.81186 55.9415 9.42712 56.4 9.17473C56.9133 8.90592 57.4877 8.77542 58.0667 8.79606C58.6142 8.78137 59.1559 8.91105 59.6373 9.17206C60.0718 9.41886 60.422 9.79048 60.6427 10.2387C60.8805 10.7313 60.9984 11.2732 60.9867 11.8201C61.0011 12.405 60.872 12.9846 60.6107 13.5081C60.3719 13.9733 60.0008 14.3575 59.544 14.6121C59.0398 14.8803 58.475 15.0144 57.904 15.0014C57.3519 15.0154 56.806 14.8819 56.3227 14.6147ZM59.0213 13.8761C59.3153 13.6813 59.5439 13.4025 59.6773 13.0761C59.827 12.7024 59.9004 12.3025 59.8933 11.9001C59.9 11.505 59.835 11.1119 59.7013 10.7401C59.5817 10.418 59.368 10.1393 59.088 9.94007C58.7633 9.74138 58.39 9.63623 58.0093 9.63623C57.6287 9.63623 57.2554 9.74138 56.9307 9.94007C56.6359 10.1446 56.4063 10.4298 56.2693 10.7614C56.1176 11.1197 56.0422 11.5057 56.048 11.8947C56.0416 12.2956 56.1122 12.6939 56.256 13.0681C56.3837 13.4104 56.6173 13.7031 56.9228 13.9035C57.2283 14.104 57.5898 14.2018 57.9547 14.1827C58.3332 14.192 58.7055 14.085 59.0213 13.8761Z" fill="white"/>
<path d="M62.1465 8.87857H64.0345C64.5877 8.83942 65.1382 8.98478 65.5999 9.29191C65.777 9.43098 65.918 9.61075 66.0109 9.81594C66.1037 10.0211 66.1457 10.2457 66.1332 10.4706C66.1395 10.763 66.0735 11.0524 65.9412 11.3132C65.8255 11.5419 65.6639 11.7444 65.4666 11.9079C65.2901 12.0504 65.0921 12.1638 64.8799 12.2439L66.7466 14.9106H65.5332L63.9625 12.5106H63.1972V14.9106H62.1465V8.87857ZM63.7812 11.7319C64.0128 11.737 64.2423 11.6867 64.4506 11.5852C64.6381 11.4952 64.7963 11.3537 64.9065 11.1772C65.0166 10.9889 65.0729 10.774 65.0692 10.5559C65.08 10.43 65.0593 10.3035 65.009 10.1876C64.9587 10.0717 64.8805 9.97007 64.7812 9.89191C64.5312 9.73539 64.2382 9.66167 63.9439 9.68124H63.1892V11.7426L63.7812 11.7319Z" fill="white"/>
<path d="M67.5599 8.87866H71.1145L71.0132 9.73733H68.6132V11.3987H70.8665V12.1987H68.5919V14.0387H71.1332L71.0559 14.9107H67.5599V8.87866Z" fill="white"/>
<path d="M74.9813 8.87866H76.0213V14.9107H74.9813V8.87866Z" fill="white"/>
<path d="M78.7759 9.748H76.9092L76.9999 8.87866H81.6932L81.5972 9.748H79.8186V14.9107H78.7759V9.748Z" fill="white"/>
<path d="M86.2131 14.6146C85.7768 14.3686 85.4247 13.9969 85.2025 13.548C84.9577 13.0509 84.8369 12.5019 84.8505 11.948C84.8377 11.3695 84.9658 10.7966 85.2238 10.2786C85.4609 9.81225 85.8325 9.42769 86.2904 9.17464C86.7997 8.90451 87.3701 8.7704 87.9464 8.78531C88.5004 8.77039 89.0482 8.90389 89.5331 9.17197C89.9681 9.41798 90.3186 9.78982 90.5384 10.2386C90.7772 10.731 90.896 11.2729 90.8851 11.82C90.8999 12.4052 90.7699 12.9851 90.5064 13.508C90.2685 13.9738 89.8971 14.3581 89.4398 14.612C88.9358 14.8809 88.3709 15.015 87.7998 15.0013C87.2459 15.0162 86.6981 14.8827 86.2131 14.6146ZM88.9144 13.876C89.207 13.6803 89.4345 13.4017 89.5678 13.076C89.7174 12.7023 89.7908 12.3024 89.7838 11.9C89.7905 11.5049 89.7254 11.1118 89.5918 10.74C89.4731 10.4181 89.2603 10.1393 88.9811 9.93997C88.656 9.74105 88.2823 9.63579 87.9011 9.63579C87.52 9.63579 87.1462 9.74105 86.8211 9.93997C86.5263 10.1445 86.2967 10.4297 86.1598 10.7613C86.0093 11.12 85.934 11.5057 85.9384 11.8946C85.932 12.2955 86.0026 12.6938 86.1464 13.068C86.2737 13.3969 86.4955 13.6808 86.7838 13.884C87.0995 14.0923 87.4724 14.1968 87.8504 14.1826C88.228 14.1904 88.599 14.0835 88.9144 13.876Z" fill="white"/>
<path d="M92.0399 8.87866H93.2345L96.2185 13.5533C96.1919 13.108 96.1812 12.7 96.1812 12.324V8.87866H97.1465V14.9107H95.9892L92.9599 10.1613C92.9892 10.6947 93.0052 11.1773 93.0052 11.596V14.9107H92.0399V8.87866Z" fill="white"/>
</svg>
