<svg width="17" height="17" viewBox="0 0 17 17" fill="none" xmlns="http://www.w3.org/2000/svg">
<path d="M16.67 1.88484V4.55585C16.67 4.73295 16.5997 4.9028 16.4745 5.02802C16.3492 5.15325 16.1794 5.2236 16.0023 5.2236C15.8252 5.2236 15.6553 5.15325 15.5301 5.02802C15.4049 4.9028 15.3345 4.73295 15.3345 4.55585V2.8444L11.7955 6.36479C11.6692 6.48612 11.5003 6.55299 11.3252 6.55099C11.1501 6.549 10.9828 6.47829 10.8593 6.35412C10.7358 6.22994 10.6661 6.06223 10.6651 5.88712C10.6641 5.71201 10.7319 5.54351 10.8539 5.41792L14.4064 1.88484H12.6635C12.4864 1.88484 12.3166 1.81449 12.1914 1.68926C12.0661 1.56404 11.9958 1.39419 11.9958 1.21709C11.9958 1.03999 12.0661 0.870147 12.1914 0.744919C12.3166 0.619692 12.4864 0.549339 12.6635 0.549339H15.3345C15.6887 0.549339 16.0284 0.690044 16.2789 0.9405C16.5293 1.19096 16.67 1.53065 16.67 1.88484ZM16.0657 11.7268C16.4527 12.1149 16.67 12.6405 16.67 13.1886C16.67 13.7366 16.4527 14.2622 16.0657 14.6503L15.4567 15.3514C9.98718 20.5852 -3.32045 7.28162 1.83459 1.79603L2.60184 1.12828C2.99053 0.752183 3.51155 0.544038 4.05239 0.548786C4.59323 0.553533 5.11051 0.770792 5.49254 1.15366C5.51257 1.17436 6.74992 2.7823 6.74992 2.7823C7.11696 3.1679 7.32134 3.68007 7.32059 4.21243C7.31985 4.74478 7.11403 5.25639 6.74591 5.64095L5.97199 6.61386C6.39991 7.65363 7.02908 8.59859 7.82333 9.39445C8.61759 10.1903 9.56128 10.8214 10.6002 11.2514L11.5784 10.4735C11.963 10.1055 12.4744 9.89985 13.0066 9.89911C13.5388 9.89836 14.0509 10.1026 14.4364 10.4695C14.4364 10.4695 16.045 11.7068 16.0657 11.7268ZM15.1476 12.6978C15.1476 12.6978 13.5496 11.4678 13.5289 11.4477C13.3914 11.3113 13.2055 11.2348 13.0118 11.2348C12.818 11.2348 12.6322 11.3113 12.4946 11.4477C12.4766 11.4651 11.1297 12.5388 11.1297 12.5388C11.0389 12.6111 10.9309 12.6584 10.8163 12.6762C10.7017 12.694 10.5844 12.6817 10.476 12.6403C9.12926 12.1395 7.90605 11.3549 6.88938 10.3396C5.8727 9.32427 5.08636 8.10213 4.58373 6.7561C4.53976 6.64666 4.52555 6.52754 4.54256 6.41083C4.55957 6.29413 4.60718 6.18401 4.68055 6.09168C4.68055 6.09168 5.75363 4.74483 5.77166 4.7268C5.90806 4.58923 5.98459 4.40335 5.98459 4.20962C5.98459 4.0159 5.90806 3.83002 5.77166 3.69245C5.75163 3.67242 4.52163 2.07382 4.52163 2.07382C4.38209 1.94853 4.19991 1.88136 4.01243 1.88608C3.82496 1.8908 3.64639 1.96705 3.51332 2.09919L2.74608 2.76694C-1.02272 7.29564 10.5114 18.1907 14.4798 14.4406L15.0888 13.7394C15.2324 13.6077 15.3189 13.4251 15.3298 13.2305C15.3408 13.036 15.2754 12.8448 15.1476 12.6978Z" fill="#9FA6B2"/>
</svg>
