<svg width="18" height="17" viewBox="0 0 18 17" fill="none" xmlns="http://www.w3.org/2000/svg">
<path d="M8.12507 3.06495L9 4.64572L9.87493 3.06494C10.1986 2.4802 10.6708 1.99121 11.2439 1.64736C11.8086 1.30855 12.4515 1.12247 13.1095 1.10714C14.1803 1.16141 15.1876 1.63324 15.9149 2.42205C16.6488 3.21812 17.0379 4.27233 16.9971 5.35435L16.9964 5.3732V5.39206C16.9964 6.40287 16.5823 7.53701 15.8544 8.72752C15.1328 9.90761 14.1512 11.0644 13.1328 12.1001C11.3509 13.9124 9.5312 15.2792 9.00018 15.6662C8.46597 15.2764 6.64776 13.9103 4.86716 12.0995C3.84877 11.0639 2.86718 9.90724 2.1456 8.72727C1.41765 7.53689 1.00363 6.40285 1.00363 5.39206V5.3732L1.00292 5.35435C0.962089 4.27233 1.35116 3.21812 2.08513 2.42205C2.8124 1.63324 3.81973 1.16141 4.89049 1.10714C5.54851 1.12247 6.19144 1.30855 6.75613 1.64736C7.32922 1.99121 7.80143 2.4802 8.12507 3.06495Z" stroke="#252F3F" stroke-width="2"/>
</svg>
