<svg width="6" height="12" viewBox="0 0 6 12" fill="none" xmlns="http://www.w3.org/2000/svg">
<path d="M1.91327 6.44971C1.83487 6.37195 1.77264 6.27943 1.73017 6.1775C1.68771 6.07557 1.66585 5.96625 1.66585 5.85582C1.66585 5.7454 1.68771 5.63607 1.73017 5.53414C1.77264 5.43222 1.83487 5.3397 1.91327 5.26194L5.75258 1.431C5.83098 1.35324 5.89321 1.26072 5.93567 1.15879C5.97814 1.05687 6 0.947536 6 0.837115C6 0.726693 5.97814 0.617364 5.93567 0.515435C5.89321 0.413505 5.83098 0.320993 5.75258 0.243234C5.59586 0.0874439 5.38386 0 5.16288 0C4.9419 0 4.7299 0.0874439 4.57318 0.243234L0.733869 4.08255C0.263949 4.55305 0 5.19084 0 5.85582C0 6.52081 0.263949 7.1586 0.733869 7.6291L4.57318 11.4684C4.72898 11.6229 4.93926 11.7101 5.1587 11.711C5.26878 11.7116 5.37791 11.6905 5.47982 11.6489C5.58173 11.6073 5.67442 11.5459 5.75258 11.4684C5.83098 11.3907 5.89321 11.2981 5.93567 11.1962C5.97814 11.0943 6 10.985 6 10.8745C6 10.7641 5.97814 10.6548 5.93567 10.5529C5.89321 10.4509 5.83098 10.3584 5.75258 10.2807L1.91327 6.44971Z" fill="black"/>
</svg>
