<svg width="16" height="15" viewBox="0 0 16 15" fill="none" xmlns="http://www.w3.org/2000/svg">
<path d="M12.6667 0.214966H3.33333C2.4496 0.216024 1.60237 0.567554 0.97748 1.19245C0.352588 1.81734 0.00105857 2.66457 0 3.5483L0 11.5483C0.00105857 12.432 0.352588 13.2793 0.97748 13.9042C1.60237 14.529 2.4496 14.8806 3.33333 14.8816H12.6667C13.5504 14.8806 14.3976 14.529 15.0225 13.9042C15.6474 13.2793 15.9989 12.432 16 11.5483V3.5483C15.9989 2.66457 15.6474 1.81734 15.0225 1.19245C14.3976 0.567554 13.5504 0.216024 12.6667 0.214966ZM3.33333 1.5483H12.6667C13.0659 1.54908 13.4557 1.66931 13.786 1.8935C14.1163 2.11769 14.3719 2.4356 14.52 2.8063L9.41467 7.9123C9.03895 8.28651 8.53028 8.49661 8 8.49661C7.46972 8.49661 6.96105 8.28651 6.58533 7.9123L1.48 2.8063C1.6281 2.4356 1.88374 2.11769 2.21403 1.8935C2.54432 1.66931 2.93414 1.54908 3.33333 1.5483ZM12.6667 13.5483H3.33333C2.8029 13.5483 2.29419 13.3376 1.91912 12.9625C1.54405 12.5874 1.33333 12.0787 1.33333 11.5483V4.5483L5.64267 8.85497C6.26842 9.47914 7.11617 9.82966 8 9.82966C8.88383 9.82966 9.73158 9.47914 10.3573 8.85497L14.6667 4.5483V11.5483C14.6667 12.0787 14.456 12.5874 14.0809 12.9625C13.7058 13.3376 13.1971 13.5483 12.6667 13.5483Z" fill="#9FA6B2"/>
</svg>
