<svg width="116" height="28" viewBox="0 0 116 28" fill="none" xmlns="http://www.w3.org/2000/svg">
<path fill-rule="evenodd" clip-rule="evenodd" d="M0.454487 1.4698C0.166397 1.78152 0 2.25783 0 2.88127V24.9935C0 25.6169 0.166396 26.0932 0.464421 26.3925L0.54141 26.4598L12.8796 14.0708V13.794L0.531476 1.40247L0.454487 1.4698Z" fill="url(#paint0_linear_181_294)"/>
<path fill-rule="evenodd" clip-rule="evenodd" d="M16.9846 18.2129L12.8694 14.0807V13.7915L16.9846 9.6593L17.074 9.71416L21.9418 12.4922C23.3351 13.2802 23.3351 14.582 21.9418 15.38L17.074 18.1581L16.9846 18.2129Z" fill="url(#paint1_linear_181_294)"/>
<path fill-rule="evenodd" clip-rule="evenodd" d="M17.0742 18.1581L12.8695 13.9362L0.454346 26.4025C0.908833 26.8913 1.67128 26.9461 2.52313 26.4698L17.0742 18.1581Z" fill="url(#paint2_linear_181_294)"/>
<path fill-rule="evenodd" clip-rule="evenodd" d="M17.0742 9.33556L2.52313 1.03631C1.67128 0.547533 0.906349 0.614865 0.454346 1.10364L12.8695 13.5575L17.0742 9.33556Z" fill="url(#paint3_linear_181_294)"/>
<path opacity="0.2" fill-rule="evenodd" clip-rule="evenodd" d="M16.9847 18.0684L2.53291 26.3127C1.72575 26.7791 1.00552 26.7466 0.541101 26.3227L0.464111 26.4L0.541101 26.4673C1.00552 26.8888 1.72575 26.9237 2.53291 26.4574L17.084 18.1581L16.9847 18.0684Z" fill="black"/>
<path opacity="0.12" fill-rule="evenodd" clip-rule="evenodd" d="M21.942 15.2354L16.9724 18.0683L17.0618 18.1581L21.9295 15.38C22.6274 14.981 22.9701 14.4574 22.9701 13.9362C22.9279 14.415 22.5728 14.8688 21.942 15.2354Z" fill="black"/>
<path opacity="0.25" fill-rule="evenodd" clip-rule="evenodd" d="M2.52327 1.55957L21.942 12.6369C22.5728 12.9935 22.928 13.4598 22.9826 13.9361C22.9826 13.4149 22.6399 12.8912 21.942 12.4922L2.52327 1.41493C1.13001 0.614436 0 1.28277 0 2.88127V3.02591C0 1.42491 1.13001 0.76905 2.52327 1.55957Z" fill="white"/>
<path d="M61.02 6.46633C60.1184 6.46633 59.3585 6.14963 58.7575 5.52618C58.1614 4.9202 57.8286 4.08479 57.8435 3.23192C57.8435 2.3217 58.1515 1.55112 58.7575 0.94015C59.356 0.316709 60.116 0 61.0175 0C61.9091 0 62.669 0.316709 63.28 0.94015C63.8859 1.57107 64.1939 2.34165 64.1939 3.23192C64.184 4.14464 63.876 4.91521 63.28 5.52369C62.6814 6.15212 61.9215 6.46633 61.02 6.46633ZM34.1955 6.46633C33.3138 6.46633 32.5489 6.15461 31.923 5.53865C31.3022 4.92519 30.9868 4.14963 30.9868 3.23441C30.9868 2.3192 31.3022 1.54364 31.923 0.930175C32.5365 0.314215 33.3014 0.00249392 34.1955 0.00249392C34.6326 0.00249392 35.0572 0.0897759 35.4645 0.266833C35.8644 0.438903 36.1897 0.673317 36.4306 0.9601L36.4902 1.03242L35.8172 1.69576L35.7477 1.61347C35.3677 1.1596 34.8586 0.937656 34.1855 0.937656C33.5845 0.937656 33.0605 1.15212 32.6284 1.57606C32.1937 2.00249 31.9727 2.5611 31.9727 3.23691C31.9727 3.91272 32.1937 4.47132 32.6284 4.89776C33.0605 5.3217 33.5845 5.53616 34.1855 5.53616C34.8263 5.53616 35.3652 5.3217 35.7849 4.89776C36.0333 4.64838 36.1872 4.29925 36.2419 3.85786H34.0837V2.92519H37.1682L37.1807 3.00998C37.203 3.16708 37.2254 3.32918 37.2254 3.4788C37.2254 4.33915 36.9671 5.03491 36.4555 5.54863C35.8743 6.15711 35.1144 6.46633 34.1955 6.46633ZM69.8613 6.33416H68.9101L65.9969 1.65337L66.0218 2.49626V6.33167H65.0706V0.134664H66.1559L66.1857 0.182045L68.925 4.59102L68.9002 3.75062V0.134664H69.8613V6.33416ZM53.8724 6.33416H52.9088V1.06733H51.2374V0.134664H55.5413V1.06733H53.8699V6.33416H53.8724ZM50.4526 6.33416H49.4915V0.134664H50.4526V6.33416ZM45.0509 6.33416H44.0898V1.06733H42.4184V0.134664H46.7223V1.06733H45.0509V6.33416ZM41.8099 6.32419H38.1244V0.134664H41.8099V1.06733H39.088V2.76808H41.5442V3.69077H39.088V5.39152H41.8099V6.32419ZM59.4628 4.88529C59.8924 5.31671 60.414 5.53367 61.02 5.53367C61.6433 5.53367 62.1524 5.3217 62.5771 4.88529C62.9993 4.46135 63.2129 3.90524 63.2129 3.23441C63.2129 2.56359 62.9993 2.00499 62.5796 1.58354C62.15 1.15212 61.6259 0.935162 61.0224 0.935162C60.3991 0.935162 59.89 1.14713 59.4678 1.58354C59.0456 2.00748 58.832 2.56359 58.832 3.23441C58.832 3.90524 59.0431 4.46384 59.4628 4.88529Z" fill="white"/>
<path fill-rule="evenodd" clip-rule="evenodd" d="M57.9431 15.1895C55.5961 15.1895 53.6937 16.9775 53.6937 19.4439C53.6937 21.8878 55.6086 23.6982 57.9431 23.6982C60.29 23.6982 62.1924 21.8977 62.1924 19.4439C62.1924 16.9775 60.29 15.1895 57.9431 15.1895ZM57.9431 22.0124C56.6591 22.0124 55.5539 20.9451 55.5539 19.4339C55.5539 17.9002 56.6616 16.8553 57.9431 16.8553C59.2271 16.8553 60.3322 17.9002 60.3322 19.4339C60.3347 20.9551 59.2271 22.0124 57.9431 22.0124ZM48.672 15.1895C46.3251 15.1895 44.4227 16.9775 44.4227 19.4439C44.4227 21.8878 46.3375 23.6982 48.672 23.6982C51.019 23.6982 52.9214 21.8977 52.9214 19.4439C52.9214 16.9775 51.0165 15.1895 48.672 15.1895ZM48.672 22.0124C47.388 22.0124 46.2829 20.9451 46.2829 19.4339C46.2829 17.9002 47.3905 16.8553 48.672 16.8553C49.956 16.8553 51.0612 17.9002 51.0612 19.4339C51.0612 20.9551 49.956 22.0124 48.672 22.0124ZM37.6402 16.4888V18.2893H41.9441C41.8125 19.2992 41.4797 20.0449 40.9706 20.5561C40.3398 21.1895 39.3662 21.8778 37.6501 21.8778C35.0051 21.8778 32.9363 19.7331 32.9363 17.0773C32.9363 14.4214 35.0051 12.2768 37.6501 12.2768C39.0781 12.2768 40.1187 12.8429 40.8911 13.5661L42.1627 12.2893C41.0898 11.2568 39.6618 10.4663 37.66 10.4663C34.0316 10.4663 30.9868 13.4339 30.9868 17.0673C30.9868 20.7107 34.0291 23.6683 37.66 23.6683C39.6195 23.6683 41.0898 23.0249 42.2521 21.8129C43.4367 20.6234 43.8118 18.9451 43.8118 17.591C43.8118 17.1696 43.7795 16.7905 43.7124 16.4688H37.6377C37.6402 16.4663 37.6402 16.4888 37.6402 16.4888ZM82.7636 17.8902C82.4084 16.9351 81.3355 15.1795 79.1351 15.1795C76.9546 15.1795 75.1416 16.9027 75.1416 19.4339C75.1416 21.8229 76.9347 23.6883 79.3462 23.6883C81.2834 23.6883 82.4109 22.4987 82.8753 21.8005L81.4374 20.8329C80.9605 21.5436 80.2974 22.0099 79.3562 22.0099C78.405 22.0099 77.7394 21.576 77.2973 20.7207L82.9622 18.3641C82.9622 18.3666 82.7636 17.8902 82.7636 17.8902ZM76.9869 19.3117C76.9421 17.6683 78.2584 16.8329 79.1997 16.8329C79.9423 16.8329 80.5607 17.1995 80.7718 17.7331L76.9869 19.3117ZM72.3849 23.4339H74.245V10.9351H72.3849V23.4339ZM69.3301 16.1346H69.263C68.8433 15.6334 68.0461 15.1795 67.0279 15.1795C64.9144 15.1795 62.9673 17.0474 62.9673 19.4464C62.9673 21.8354 64.9044 23.6808 67.0279 23.6808C68.0337 23.6808 68.8433 23.2244 69.263 22.7132H69.3301V23.3242C69.3301 24.9476 68.4658 25.8229 67.0726 25.8229C65.9326 25.8229 65.2248 25 64.9367 24.3117L63.3199 24.99C63.7844 26.1122 65.0237 27.5012 67.0701 27.5012C69.2506 27.5012 71.0984 26.2119 71.0984 23.0673V15.4339H69.34V16.1346C69.3425 16.1346 69.3301 16.1346 69.3301 16.1346ZM67.1943 22.0124C65.9103 22.0124 64.8374 20.9351 64.8374 19.4464C64.8374 17.9451 65.9103 16.8578 67.1943 16.8578C68.4658 16.8578 69.4518 17.9576 69.4518 19.4464C69.4642 20.9351 68.4683 22.0124 67.1943 22.0124ZM91.4733 10.9351H87.0253V23.4339H88.8855V18.7007H91.4758C93.5347 18.7007 95.5588 17.202 95.5588 14.8229C95.5588 12.4439 93.5421 10.9351 91.4733 10.9351ZM91.528 16.9551H88.883V12.6658H91.528C92.9212 12.6658 93.7085 13.8204 93.7085 14.8104C93.7085 15.7905 92.9113 16.9551 91.528 16.9551ZM103.014 15.1671C101.663 15.1671 100.27 15.7681 99.6938 17.0773L101.343 17.7656C101.698 17.0773 102.349 16.8429 103.037 16.8429C104 16.8429 104.974 17.4214 104.996 18.4538V18.586C104.663 18.3965 103.933 18.1072 103.059 18.1072C101.278 18.1072 99.4728 19.0848 99.4728 20.9177C99.4728 22.596 100.933 23.6733 102.56 23.6733C103.809 23.6733 104.497 23.1072 104.927 22.4513H104.994V23.4189H106.787V18.6309C106.787 16.4015 105.138 15.1671 103.014 15.1671ZM102.781 22.0124C102.172 22.0124 101.321 21.7132 101.321 20.9451C101.321 19.9775 102.384 19.6109 103.29 19.6109C104.11 19.6109 104.497 19.788 104.984 20.0324C104.85 21.1546 103.906 22.0025 102.781 22.0124ZM113.328 15.4339L111.193 20.8553H111.126L108.913 15.4339H106.911L110.231 23.0124L108.339 27.2244H110.276L115.385 15.4339H113.328ZM96.5845 23.4339H98.4446V10.9351H96.5845V23.4339Z" fill="white"/>
<defs>
<linearGradient id="paint0_linear_181_294" x1="11.7729" y1="2.6427" x2="-8.00151" y2="7.89" gradientUnits="userSpaceOnUse">
<stop stop-color="#00A0FF"/>
<stop offset="0.00657" stop-color="#00A1FF"/>
<stop offset="0.2601" stop-color="#00BEFF"/>
<stop offset="0.5122" stop-color="#00D2FF"/>
<stop offset="0.7604" stop-color="#00DFFF"/>
<stop offset="1" stop-color="#00E3FF"/>
</linearGradient>
<linearGradient id="paint1_linear_181_294" x1="23.7587" y1="13.9361" x2="-0.338997" y2="13.9361" gradientUnits="userSpaceOnUse">
<stop stop-color="#FFE000"/>
<stop offset="0.4087" stop-color="#FFBD00"/>
<stop offset="0.7754" stop-color="#FFA500"/>
<stop offset="1" stop-color="#FF9C00"/>
</linearGradient>
<linearGradient id="paint2_linear_181_294" x1="14.7879" y1="16.2335" x2="-1.17492" y2="42.99" gradientUnits="userSpaceOnUse">
<stop stop-color="#FF3A44"/>
<stop offset="1" stop-color="#C31162"/>
</linearGradient>
<linearGradient id="paint3_linear_181_294" x1="-2.67194" y1="-6.2637" x2="4.44972" y2="5.68619" gradientUnits="userSpaceOnUse">
<stop stop-color="#32A071"/>
<stop offset="0.0685" stop-color="#2DA771"/>
<stop offset="0.4762" stop-color="#15CF74"/>
<stop offset="0.8009" stop-color="#06E775"/>
<stop offset="1" stop-color="#00F076"/>
</linearGradient>
</defs>
</svg>
