<svg width="16" height="17" viewBox="0 0 16 17" fill="none" xmlns="http://www.w3.org/2000/svg">
<path d="M15.8878 6.49187C15.7514 6.05772 15.4789 5.679 15.1106 5.4117C14.7424 5.1444 14.2978 5.00271 13.8428 5.0076H10.9296L10.0448 2.24977C9.90561 1.81566 9.63219 1.43696 9.26393 1.16828C8.89566 0.899601 8.45158 0.754822 7.99572 0.754822C7.53986 0.754822 7.09578 0.899601 6.72751 1.16828C6.35924 1.43696 6.08582 1.81566 5.94668 2.24977L5.06185 5.0076H2.14866C1.69507 5.00825 1.25329 5.15222 0.886416 5.41895C0.519542 5.68567 0.246341 6.06152 0.105836 6.4928C-0.034669 6.92407 -0.0352909 7.38872 0.104059 7.82037C0.243409 8.25202 0.515603 8.6286 0.881762 8.89631L3.25286 10.63L2.35136 13.4218C2.20568 13.8548 2.20383 14.3233 2.3461 14.7574C2.48837 15.1916 2.76713 15.5681 3.14084 15.8309C3.50814 16.1021 3.95325 16.2474 4.40984 16.2452C4.86643 16.2429 5.31006 16.0931 5.67463 15.8182L7.99572 14.1099L10.3175 15.8162C10.6841 16.0859 11.1268 16.2324 11.5819 16.2346C12.0371 16.2368 12.4812 16.0947 12.8504 15.8286C13.2197 15.5625 13.495 15.1861 13.6369 14.7537C13.7788 14.3212 13.7799 13.8549 13.6401 13.4218L12.7386 10.63L15.1123 8.89631C15.4827 8.63196 15.7581 8.25539 15.8977 7.82234C16.0374 7.38929 16.0339 6.92279 15.8878 6.49187ZM14.3255 7.81944L11.5624 9.83914C11.4489 9.92194 11.3644 10.0385 11.3211 10.1721C11.2777 10.3057 11.2777 10.4496 11.321 10.5833L12.3712 13.8305C12.4243 13.9952 12.4239 14.1725 12.3699 14.337C12.3159 14.5014 12.2112 14.6445 12.0707 14.7456C11.9303 14.8468 11.7614 14.9008 11.5884 14.8999C11.4153 14.899 11.247 14.8433 11.1076 14.7407L8.39046 12.7403C8.27601 12.6563 8.13772 12.6109 7.99572 12.6109C7.85372 12.6109 7.71542 12.6563 7.60098 12.7403L4.88382 14.7407C4.74452 14.8447 4.57572 14.9016 4.40191 14.9031C4.2281 14.9047 4.0583 14.8509 3.91713 14.7495C3.77596 14.6481 3.67077 14.5043 3.61679 14.3391C3.56281 14.1739 3.56286 13.9957 3.61692 13.8305L4.67045 10.5833C4.71373 10.4496 4.7137 10.3057 4.67036 10.1721C4.62701 10.0385 4.54257 9.92194 4.42907 9.83914L1.6659 7.81944C1.52675 7.71756 1.42335 7.5743 1.37048 7.41013C1.31761 7.24597 1.31797 7.06929 1.37151 6.90534C1.42505 6.7414 1.52903 6.59856 1.6686 6.49724C1.80817 6.39592 1.97619 6.3413 2.14866 6.34118H5.54927C5.69044 6.34117 5.82797 6.29636 5.94205 6.2132C6.05612 6.13004 6.14086 6.01282 6.18406 5.87843L7.21758 2.65718C7.27063 2.49234 7.37461 2.34858 7.51457 2.2466C7.65452 2.14462 7.82322 2.08968 7.99639 2.08968C8.16955 2.08968 8.33825 2.14462 8.4782 2.2466C8.61816 2.34858 8.72214 2.49234 8.77519 2.65718L9.80871 5.87843C9.85191 6.01282 9.93665 6.13004 10.0507 6.2132C10.1648 6.29636 10.3023 6.34117 10.4435 6.34118H13.8441C14.0166 6.3413 14.1846 6.39592 14.3242 6.49724C14.4637 6.59856 14.5677 6.7414 14.6213 6.90534C14.6748 7.06929 14.6752 7.24597 14.6223 7.41013C14.5694 7.5743 14.466 7.71756 14.3269 7.81944H14.3255Z" fill="#4B5563"/>
</svg>
