<svg width="16" height="23" viewBox="0 0 16 23" fill="none" xmlns="http://www.w3.org/2000/svg">
<path d="M8.00001 11.4997C9.05484 11.4997 10.086 11.1869 10.963 10.6008C11.8401 10.0148 12.5237 9.18186 12.9274 8.20732C13.331 7.23278 13.4366 6.16043 13.2309 5.12586C13.0251 4.0913 12.5171 3.14099 11.7712 2.39511C11.0254 1.64923 10.0751 1.14128 9.04049 0.935489C8.00592 0.729701 6.93357 0.835319 5.95903 1.23899C4.98449 1.64265 4.15153 2.32624 3.5655 3.2033C2.97947 4.08036 2.66667 5.11151 2.66667 6.16634C2.66808 7.5804 3.23044 8.93613 4.23033 9.93602C5.23022 10.9359 6.58595 11.4983 8.00001 11.4997ZM8.00001 2.61079C8.70323 2.61079 9.39066 2.81932 9.97537 3.21001C10.5601 3.6007 11.0158 4.156 11.2849 4.80569C11.554 5.45538 11.6244 6.17029 11.4872 6.86C11.3501 7.54971 11.0114 8.18325 10.5142 8.6805C10.0169 9.17775 9.38337 9.51639 8.69366 9.65358C8.00395 9.79077 7.28905 9.72036 6.63935 9.45125C5.98966 9.18214 5.43436 8.72641 5.04367 8.1417C4.65298 7.557 4.44445 6.86957 4.44445 6.16634C4.44445 5.22335 4.81905 4.31898 5.48585 3.65219C6.15264 2.98539 7.05701 2.61079 8.00001 2.61079Z" fill="#252F3F"/>
<path d="M8 13.2781C5.87899 13.2804 3.84553 14.124 2.34574 15.6238C0.845963 17.1236 0.00235276 19.1571 0 21.2781C0 21.5138 0.0936505 21.7399 0.260349 21.9066C0.427048 22.0733 0.653141 22.167 0.888889 22.167C1.12464 22.167 1.35073 22.0733 1.51743 21.9066C1.68413 21.7399 1.77778 21.5138 1.77778 21.2781C1.77778 19.6278 2.43333 18.0452 3.60022 16.8783C4.76712 15.7114 6.34976 15.0559 8 15.0559C9.65024 15.0559 11.2329 15.7114 12.3998 16.8783C13.5667 18.0452 14.2222 19.6278 14.2222 21.2781C14.2222 21.5138 14.3159 21.7399 14.4826 21.9066C14.6493 22.0733 14.8754 22.167 15.1111 22.167C15.3469 22.167 15.573 22.0733 15.7397 21.9066C15.9064 21.7399 16 21.5138 16 21.2781C15.9976 19.1571 15.154 17.1236 13.6543 15.6238C12.1545 14.124 10.121 13.2804 8 13.2781Z" fill="#252F3F"/>
</svg>
