<svg width="120" height="27" viewBox="0 0 120 27" fill="none" xmlns="http://www.w3.org/2000/svg">
<g clip-path="url(#clip0_251_1287)">
<path d="M12.5749 23.8636C12.7382 23.4433 12.816 22.9947 12.8039 22.544C12.8288 21.2948 13.1626 20.0713 13.7756 18.9826C14.3871 17.8958 15.2591 16.9779 16.3133 16.3116C16.7036 16.1022 17.0473 15.8158 17.3238 15.4698C17.6002 15.1237 17.8036 14.7252 17.9216 14.2983C18.0396 13.8714 18.0697 13.425 18.0102 12.9861C17.9507 12.5472 17.8028 12.1249 17.5754 11.7448C17.2716 11.2372 16.8344 10.8209 16.3133 10.544C16.0145 10.3367 15.7275 10.1135 15.454 9.87436L14.7684 9.20303C13.5121 7.88235 12.8076 6.13177 12.7989 4.30904C12.8118 3.85822 12.7344 3.40936 12.5711 2.98894C12.4078 2.56853 12.162 2.18508 11.8481 1.86121C11.5356 1.5377 11.1612 1.28047 10.7471 1.10486C10.333 0.929252 9.88779 0.838871 9.43801 0.839112C8.98849 0.839746 8.54367 0.930528 8.12985 1.10609C7.71603 1.28165 7.34163 1.53842 7.02878 1.86121C6.71546 2.18565 6.46999 2.56932 6.30673 2.98977C6.14348 3.41022 6.06572 3.85901 6.07801 4.30988C6.08534 4.89514 6.24654 5.46817 6.54542 5.97142C6.84328 6.47381 7.26852 6.88864 7.77815 7.17394C9.84165 8.47967 11.2775 10.9762 11.2775 13.4316C11.2724 15.2385 10.5813 16.976 9.34403 18.2928L7.78319 19.6791C7.27382 19.9636 6.84836 20.3781 6.54962 20.8816C6.25004 21.3843 6.08976 21.9583 6.08221 22.544C6.06937 22.9948 6.14688 23.4436 6.31017 23.864C6.47345 24.2844 6.71921 24.6679 7.03298 24.9918C7.34551 25.3153 7.71997 25.5725 8.13404 25.7481C8.5481 25.9237 8.99329 26.0141 9.44305 26.0139C9.89271 26.0134 10.3377 25.9227 10.7517 25.7471C11.1656 25.5716 11.5402 25.3147 11.8531 24.9918C12.1663 24.6675 12.4117 24.2839 12.5749 23.8636Z" fill="#6875F5"/>
<path d="M17.1331 6.17618C16.763 5.62065 16.5658 4.96694 16.5658 4.29897C16.5664 3.4042 16.9209 2.54597 17.5519 1.91156C18.1005 1.35959 18.8241 1.01576 19.5986 0.939046C20.3731 0.862335 21.1501 1.05753 21.7963 1.49114C22.3499 1.86281 22.7809 2.39018 23.0349 3.00666C23.289 3.62385 23.3553 4.30226 23.2256 4.95696C23.0959 5.61165 22.7759 6.21353 22.3057 6.68722C21.837 7.15961 21.2381 7.4816 20.5855 7.61208C19.9329 7.74256 19.2563 7.67563 18.6419 7.41981C18.027 7.16374 17.5019 6.73092 17.1331 6.17618Z" fill="#6875F5"/>
<path d="M18.0604 19.7353C18.6134 19.3644 19.2637 19.1664 19.9284 19.1664V19.1647C20.3702 19.1652 20.8075 19.253 21.2153 19.4229C21.6231 19.5928 21.9934 19.8416 22.3049 20.1549C22.8553 20.7087 23.1977 21.4355 23.2741 22.2125C23.3506 22.9895 23.1564 23.7691 22.7244 24.4195C22.3557 24.975 21.8303 25.4085 21.2148 25.6648C20.6004 25.9207 19.9238 25.9876 19.2712 25.8571C18.6186 25.7266 18.0198 25.4046 17.551 24.9323C17.0807 24.4585 16.7606 23.8565 16.6309 23.2016C16.5011 22.5467 16.5676 21.8681 16.8218 21.2509C17.0759 20.6344 17.5069 20.107 18.0604 19.7353Z" fill="#6875F5"/>
<path d="M27.965 11.5451C28.3341 12.1005 28.5313 12.7531 28.5314 13.4208C28.5309 14.3158 28.1764 15.1742 27.5454 15.8089C27.2339 16.1221 26.8636 16.3708 26.4558 16.5407C26.048 16.7106 25.6107 16.7984 25.1689 16.7991C24.5036 16.7991 23.8533 16.6011 23.3009 16.2302C22.7474 15.8585 22.3164 15.3311 22.0623 14.7146C21.8081 14.0973 21.7417 13.4188 21.8714 12.7639C22.0011 12.109 22.3212 11.507 22.7916 11.0332C23.2604 10.5607 23.8594 10.2386 24.5122 10.1081C25.1649 9.97762 25.8417 10.0447 26.4562 10.3007C27.0713 10.5569 27.5964 10.9901 27.965 11.5451Z" fill="#6875F5"/>
<path d="M2.33371 10.6128C2.88672 10.2419 3.53623 10.0439 4.20168 10.0439C4.64337 10.0448 5.08054 10.1328 5.48818 10.3029C5.89582 10.4729 6.26593 10.7217 6.57734 11.0349C7.12751 11.5885 7.46972 12.315 7.54617 13.0917C7.62262 13.8684 7.42861 14.6477 6.99693 15.2978C6.62825 15.8529 6.10314 16.286 5.48811 16.5423C4.87355 16.7969 4.19721 16.8632 3.54491 16.7327C2.89261 16.6023 2.29376 16.2811 1.82434 15.8097C1.35416 15.336 1.03418 14.7342 0.904462 14.0795C0.774746 13.4248 0.841063 12.7464 1.09511 12.1292C1.34903 11.5124 1.78005 10.9847 2.33371 10.6128Z" fill="#6875F5"/>
<path d="M49.2286 9.34484L47.5167 15.5479L45.6839 9.34484H43.2269L41.3941 15.5278L39.6823 9.34484H36.9231L40.1253 19.4148H42.6025L44.4554 13.3124L46.3083 19.4148H48.7855L51.9877 9.34484H49.2286ZM57.788 19.6967C60.7486 19.6967 63.1251 17.3806 63.1251 14.3798C63.1251 11.379 60.7486 9.06288 57.788 9.06288C54.8274 9.06288 52.4711 11.379 52.4711 14.3798C52.4711 17.3806 54.8274 19.6967 57.788 19.6967ZM57.788 17.1591C56.2574 17.1591 55.0691 16.0111 55.0691 14.3798C55.0691 12.7485 56.2574 11.6005 57.788 11.6005C59.3388 11.6005 60.527 12.7485 60.527 14.3798C60.527 16.0111 59.3388 17.1591 57.788 17.1591ZM67.5508 11.0769V9.34484H64.9527V19.4148H67.5508V14.6013C67.5508 12.4867 69.2627 11.8825 70.612 12.0436V9.14344C69.3432 9.14344 68.0744 9.70736 67.5508 11.0769ZM81.4154 19.4148L77.2473 14.3194L81.2954 9.34484H78.193L74.729 13.7756V5.31687H72.1309V19.4148H74.729V14.843L78.3944 19.4148H81.4154ZM88.1304 5.03491C84.9281 5.03491 83.3975 6.46484 83.3975 9.24414V9.34484H81.9474V11.8422H83.3975V19.4148H85.9955V11.8422H87.6672V9.34484H85.9955V9.24414C85.9955 7.87463 86.781 7.31072 88.1304 7.31072C88.3922 7.31072 88.6741 7.31072 88.9561 7.33086V19.4148H91.5541V5.45785C90.4465 5.23631 89.3992 5.03491 88.1304 5.03491ZM98.7164 19.6967C101.677 19.6967 104.053 17.3806 104.053 14.3798C104.053 11.379 101.677 9.06288 98.7164 9.06288C95.7558 9.06288 93.3995 11.379 93.3995 14.3798C93.3995 17.3806 95.7558 19.6967 98.7164 19.6967ZM98.7164 17.1591C97.1858 17.1591 95.9975 16.0111 95.9975 14.3798C95.9975 12.7485 97.1858 11.6005 98.7164 11.6005C100.267 11.6005 101.455 12.7485 101.455 14.3798C101.455 16.0111 100.267 17.1591 98.7164 17.1591ZM116.827 9.34484L115.115 15.5479L113.283 9.34484H110.825L108.993 15.5278L107.281 9.34484H104.522L107.724 19.4148H110.201L112.054 13.3124L113.907 19.4148H116.384L119.586 9.34484H116.827Z" fill="#252F3F"/>
</g>
<defs>
<clipPath id="clip0_251_1287">
<rect width="120" height="26.8531" fill="white"/>
</clipPath>
</defs>
</svg>
